# xmcd CD database file
#
# Track frame offsets:
#	150
#	36687
#	72977
#	96155
#	125215
#	160720
#	192265
#	225075
#	248560
#	275125
#	301182
#	332772
#
# Disc length: 4750 seconds
#
# Revision: 0
# Processed by: cddbd v1.5PL3 Copyright (c) Steve Scherf et al.
# Submitted via: CDex 1.51
#
DISCID=a7128c0c
DTITLE=Bheki Mseleku - Home At Last
DYEAR=1900
DGENRE=Jazz
TTITLE0=Sandile
TTITLE1=Monwabisi
TTITLE2=Home At Last
TTITLE3=A Journey From Within
TTITLE4=Mamelodi
TTITLE5=Love Is The Key
TTITLE6=Dance With Me Tonight
TTITLE7=Mbizo
TTITLE8=Imbali
TTITLE9=Nants' Inkululeko
TTITLE10=Belinda Ananda
TTITLE11=Monk, The Priest
EXTD=
EXTT0=
EXTT1=
EXTT2=
EXTT3=
EXTT4=
EXTT5=
EXTT6=
EXTT7=
EXTT8=
EXTT9=
EXTT10=
EXTT11=
PLAYORDER=
